# xmcd
# 
# Track frame offsets:
#     150
#     15109
#     27294
#     41088
#     54020
#     68937
#     82453
#     94752
#     108163
#     121212
#     135232
#     149787
#     164018
#     175504
#     189144
#     202799
#     217529
#     230755
#     243645
#     258856
#     272089
#     283983
# 
# Disc length: 3946
# 
# Revision: 1
# Processed by: cddbd v1.5.2PL0 Copyright (c) Steve Scherf et al.
# Submitted via: fre:ac v1.0.17
# 
DISCID=2f0f6816
DTITLE=John Steinbeck - The Grapes of Wrath [CD16)
DYEAR=1939
DGENRE=Audiobook
TTITLE0=Chapter 26.29
TTITLE1=Chapter 26.30
TTITLE2=Chapter 26.31
TTITLE3=Chapter 26.32
TTITLE4=Chapter 26.33
TTITLE5=Chapter 26.34
TTITLE6=Chapter 26.35
TTITLE7=Chapter 26.36
TTITLE8=Chapter 26.37
TTITLE9=Chapter 26.38
TTITLE10=Chapter 26.39
TTITLE11=Chapter 26.40
TTITLE12=Chapter 26.41
TTITLE13=Chapter 26.42
TTITLE14=Chapter 26.43
TTITLE15=Chapter 26.44
TTITLE16=Chapter 26.45
TTITLE17=Chapter 26.46
TTITLE18=Chapter 26.47
TTITLE19=Chapter 26.48
TTITLE20=Chapter 26.49
TTITLE21=Chapter 26.50
EXTD=The Grapes of Wrath by John Steinbeck\nread by Dylan Baker recorded books 18 CDs\nnational folk country
EXTT0=
EXTT1=
EXTT2=
EXTT3=
EXTT4=
EXTT5=
EXTT6=
EXTT7=
EXTT8=
EXTT9=
EXTT10=
EXTT11=
EXTT12=
EXTT13=
EXTT14=
EXTT15=
EXTT16=
EXTT17=
EXTT18=
EXTT19=
EXTT20=
EXTT21=
PLAYORDER=
